<svg width="476" height="286" viewBox="0 0 476 286" fill="none" xmlns="http://www.w3.org/2000/svg">
<path d="M13.4766 126.688H24.4336L52.3828 196.238L80.2734 126.688H91.2891L56.6016 212H48.0469L13.4766 126.688ZM9.90234 126.688H19.5703L21.1523 178.719V212H9.90234V126.688ZM85.1367 126.688H94.8047V212H83.5547V178.719L85.1367 126.688ZM117.356 181.004V179.656C117.356 175.086 118.02 170.848 119.348 166.941C120.677 162.996 122.591 159.578 125.091 156.688C127.591 153.758 130.618 151.492 134.173 149.891C137.727 148.25 141.712 147.43 146.126 147.43C150.579 147.43 154.583 148.25 158.137 149.891C161.731 151.492 164.778 153.758 167.278 156.688C169.817 159.578 171.751 162.996 173.079 166.941C174.407 170.848 175.071 175.086 175.071 179.656V181.004C175.071 185.574 174.407 189.812 173.079 193.719C171.751 197.625 169.817 201.043 167.278 203.973C164.778 206.863 161.751 209.129 158.196 210.77C154.68 212.371 150.696 213.172 146.243 213.172C141.79 213.172 137.786 212.371 134.231 210.77C130.677 209.129 127.63 206.863 125.091 203.973C122.591 201.043 120.677 197.625 119.348 193.719C118.02 189.812 117.356 185.574 117.356 181.004ZM128.196 179.656V181.004C128.196 184.168 128.567 187.156 129.309 189.969C130.052 192.742 131.165 195.203 132.649 197.352C134.173 199.5 136.067 201.199 138.333 202.449C140.598 203.66 143.235 204.266 146.243 204.266C149.212 204.266 151.809 203.66 154.036 202.449C156.302 201.199 158.177 199.5 159.661 197.352C161.145 195.203 162.259 192.742 163.001 189.969C163.782 187.156 164.173 184.168 164.173 181.004V179.656C164.173 176.531 163.782 173.582 163.001 170.809C162.259 167.996 161.126 165.516 159.602 163.367C158.118 161.18 156.243 159.461 153.977 158.211C151.751 156.961 149.134 156.336 146.126 156.336C143.157 156.336 140.54 156.961 138.274 158.211C136.048 159.461 134.173 161.18 132.649 163.367C131.165 165.516 130.052 167.996 129.309 170.809C128.567 173.582 128.196 176.531 128.196 179.656ZM206.705 162.137V212H195.865V148.602H206.119L206.705 162.137ZM204.127 177.898L199.615 177.723C199.654 173.387 200.298 169.383 201.548 165.711C202.798 162 204.556 158.777 206.822 156.043C209.087 153.309 211.783 151.199 214.908 149.715C218.072 148.191 221.568 147.43 225.396 147.43C228.521 147.43 231.334 147.859 233.834 148.719C236.334 149.539 238.462 150.867 240.22 152.703C242.017 154.539 243.384 156.922 244.322 159.852C245.259 162.742 245.728 166.277 245.728 170.457V212H234.83V170.34C234.83 167.02 234.341 164.363 233.365 162.371C232.388 160.34 230.962 158.875 229.087 157.977C227.212 157.039 224.908 156.57 222.173 156.57C219.478 156.57 217.017 157.137 214.791 158.27C212.603 159.402 210.709 160.965 209.107 162.957C207.545 164.949 206.314 167.234 205.416 169.812C204.556 172.352 204.127 175.047 204.127 177.898ZM281.17 148.602V212H270.272V148.602H281.17ZM269.452 131.785C269.452 130.027 269.979 128.543 271.034 127.332C272.127 126.121 273.729 125.516 275.838 125.516C277.909 125.516 279.491 126.121 280.584 127.332C281.717 128.543 282.284 130.027 282.284 131.785C282.284 133.465 281.717 134.91 280.584 136.121C279.491 137.293 277.909 137.879 275.838 137.879C273.729 137.879 272.127 137.293 271.034 136.121C269.979 134.91 269.452 133.465 269.452 131.785ZM318.722 126.688V212H307.413V126.688H318.722ZM354.464 165.066V174.324H316.261V165.066H354.464ZM360.265 126.688V135.945H316.261V126.688H360.265ZM391.078 122V212H380.18V122H391.078ZM412.809 181.004V179.656C412.809 175.086 413.473 170.848 414.802 166.941C416.13 162.996 418.044 159.578 420.544 156.688C423.044 153.758 426.071 151.492 429.626 149.891C433.18 148.25 437.165 147.43 441.579 147.43C446.032 147.43 450.036 148.25 453.591 149.891C457.184 151.492 460.231 153.758 462.731 156.688C465.27 159.578 467.204 162.996 468.532 166.941C469.86 170.848 470.524 175.086 470.524 179.656V181.004C470.524 185.574 469.86 189.812 468.532 193.719C467.204 197.625 465.27 201.043 462.731 203.973C460.231 206.863 457.204 209.129 453.649 210.77C450.134 212.371 446.149 213.172 441.696 213.172C437.243 213.172 433.239 212.371 429.684 210.77C426.13 209.129 423.083 206.863 420.544 203.973C418.044 201.043 416.13 197.625 414.802 193.719C413.473 189.812 412.809 185.574 412.809 181.004ZM423.649 179.656V181.004C423.649 184.168 424.02 187.156 424.763 189.969C425.505 192.742 426.618 195.203 428.102 197.352C429.626 199.5 431.52 201.199 433.786 202.449C436.052 203.66 438.688 204.266 441.696 204.266C444.665 204.266 447.263 203.66 449.489 202.449C451.755 201.199 453.63 199.5 455.114 197.352C456.598 195.203 457.712 192.742 458.454 189.969C459.235 187.156 459.626 184.168 459.626 181.004V179.656C459.626 176.531 459.235 173.582 458.454 170.809C457.712 167.996 456.579 165.516 455.055 163.367C453.571 161.18 451.696 159.461 449.43 158.211C447.204 156.961 444.587 156.336 441.579 156.336C438.61 156.336 435.993 156.961 433.727 158.211C431.501 159.461 429.626 161.18 428.102 163.367C426.618 165.516 425.505 167.996 424.763 170.809C424.02 173.582 423.649 176.531 423.649 179.656Z" fill="#28B446"/>
<path d="M91.71 252.94V274H86.58V261.37L81.87 274H77.73L72.99 261.34V274H67.86V252.94H73.92L79.83 267.52L85.68 252.94H91.71ZM104.819 274.24C103.179 274.24 101.699 273.89 100.379 273.19C99.0791 272.49 98.0491 271.49 97.2891 270.19C96.5491 268.89 96.1791 267.37 96.1791 265.63C96.1791 263.91 96.5591 262.4 97.3191 261.1C98.0791 259.78 99.1191 258.77 100.439 258.07C101.759 257.37 103.239 257.02 104.879 257.02C106.519 257.02 107.999 257.37 109.319 258.07C110.639 258.77 111.679 259.78 112.439 261.1C113.199 262.4 113.579 263.91 113.579 265.63C113.579 267.35 113.189 268.87 112.409 270.19C111.649 271.49 110.599 272.49 109.259 273.19C107.939 273.89 106.459 274.24 104.819 274.24ZM104.819 269.8C105.799 269.8 106.629 269.44 107.309 268.72C108.009 268 108.359 266.97 108.359 265.63C108.359 264.29 108.019 263.26 107.339 262.54C106.679 261.82 105.859 261.46 104.879 261.46C103.879 261.46 103.049 261.82 102.389 262.54C101.729 263.24 101.399 264.27 101.399 265.63C101.399 266.97 101.719 268 102.359 268.72C103.019 269.44 103.839 269.8 104.819 269.8ZM128.301 257.08C130.261 257.08 131.821 257.72 132.981 259C134.161 260.26 134.751 262 134.751 264.22V274H129.651V264.91C129.651 263.79 129.361 262.92 128.781 262.3C128.201 261.68 127.421 261.37 126.441 261.37C125.461 261.37 124.681 261.68 124.101 262.3C123.521 262.92 123.231 263.79 123.231 264.91V274H118.101V257.26H123.231V259.48C123.751 258.74 124.451 258.16 125.331 257.74C126.211 257.3 127.201 257.08 128.301 257.08ZM142.695 255.52C141.795 255.52 141.055 255.26 140.475 254.74C139.915 254.2 139.635 253.54 139.635 252.76C139.635 251.96 139.915 251.3 140.475 250.78C141.055 250.24 141.795 249.97 142.695 249.97C143.575 249.97 144.295 250.24 144.855 250.78C145.435 251.3 145.725 251.96 145.725 252.76C145.725 253.54 145.435 254.2 144.855 254.74C144.295 255.26 143.575 255.52 142.695 255.52ZM145.245 257.26V274H140.115V257.26H145.245ZM160.093 269.65V274H157.483C155.623 274 154.173 273.55 153.133 272.65C152.093 271.73 151.573 270.24 151.573 268.18V261.52H149.533V257.26H151.573V253.18H156.703V257.26H160.063V261.52H156.703V268.24C156.703 268.74 156.823 269.1 157.063 269.32C157.303 269.54 157.703 269.65 158.263 269.65H160.093ZM172.371 274.24C170.731 274.24 169.251 273.89 167.931 273.19C166.631 272.49 165.601 271.49 164.841 270.19C164.101 268.89 163.731 267.37 163.731 265.63C163.731 263.91 164.111 262.4 164.871 261.1C165.631 259.78 166.671 258.77 167.991 258.07C169.311 257.37 170.791 257.02 172.431 257.02C174.071 257.02 175.551 257.37 176.871 258.07C178.191 258.77 179.231 259.78 179.991 261.1C180.751 262.4 181.131 263.91 181.131 265.63C181.131 267.35 180.741 268.87 179.961 270.19C179.201 271.49 178.151 272.49 176.811 273.19C175.491 273.89 174.011 274.24 172.371 274.24ZM172.371 269.8C173.351 269.8 174.181 269.44 174.861 268.72C175.561 268 175.911 266.97 175.911 265.63C175.911 264.29 175.571 263.26 174.891 262.54C174.231 261.82 173.411 261.46 172.431 261.46C171.431 261.46 170.601 261.82 169.941 262.54C169.281 263.24 168.951 264.27 168.951 265.63C168.951 266.97 169.271 268 169.911 268.72C170.571 269.44 171.391 269.8 172.371 269.8ZM190.782 260.05C191.382 259.13 192.132 258.41 193.032 257.89C193.932 257.35 194.932 257.08 196.032 257.08V262.51H194.622C193.342 262.51 192.382 262.79 191.742 263.35C191.102 263.89 190.782 264.85 190.782 266.23V274H185.652V257.26H190.782V260.05ZM215.342 280.27C213.402 278.41 211.892 276.01 210.812 273.07C209.732 270.13 209.192 266.96 209.192 263.56C209.192 260.12 209.752 256.91 210.872 253.93C211.992 250.93 213.582 248.49 215.642 246.61H220.682V247.09C218.582 249.17 216.962 251.67 215.822 254.59C214.682 257.49 214.112 260.48 214.112 263.56C214.112 266.62 214.662 269.57 215.762 272.41C216.862 275.25 218.412 277.71 220.412 279.79V280.27H215.342ZM241.639 257.26L231.139 281.95H225.619L229.459 273.43L222.649 257.26H228.379L232.249 267.73L236.089 257.26H241.639ZM252.914 274.24C251.274 274.24 249.794 273.89 248.474 273.19C247.174 272.49 246.144 271.49 245.384 270.19C244.644 268.89 244.274 267.37 244.274 265.63C244.274 263.91 244.654 262.4 245.414 261.1C246.174 259.78 247.214 258.77 248.534 258.07C249.854 257.37 251.334 257.02 252.974 257.02C254.614 257.02 256.094 257.37 257.414 258.07C258.734 258.77 259.774 259.78 260.534 261.1C261.294 262.4 261.674 263.91 261.674 265.63C261.674 267.35 261.284 268.87 260.504 270.19C259.744 271.49 258.694 272.49 257.354 273.19C256.034 273.89 254.554 274.24 252.914 274.24ZM252.914 269.8C253.894 269.8 254.724 269.44 255.404 268.72C256.104 268 256.454 266.97 256.454 265.63C256.454 264.29 256.114 263.26 255.434 262.54C254.774 261.82 253.954 261.46 252.974 261.46C251.974 261.46 251.144 261.82 250.484 262.54C249.824 263.24 249.494 264.27 249.494 265.63C249.494 266.97 249.814 268 250.454 268.72C251.114 269.44 251.934 269.8 252.914 269.8ZM282.725 257.26V274H277.595V271.72C277.075 272.46 276.365 273.06 275.465 273.52C274.585 273.96 273.605 274.18 272.525 274.18C271.245 274.18 270.115 273.9 269.135 273.34C268.155 272.76 267.395 271.93 266.855 270.85C266.315 269.77 266.045 268.5 266.045 267.04V257.26H271.145V266.35C271.145 267.47 271.435 268.34 272.015 268.96C272.595 269.58 273.375 269.89 274.355 269.89C275.355 269.89 276.145 269.58 276.725 268.96C277.305 268.34 277.595 267.47 277.595 266.35V257.26H282.725ZM293.34 260.05C293.94 259.13 294.69 258.41 295.59 257.89C296.49 257.35 297.49 257.08 298.59 257.08V262.51H297.18C295.9 262.51 294.94 262.79 294.3 263.35C293.66 263.89 293.34 264.85 293.34 266.23V274H288.21V257.26H293.34V260.05ZM301.462 280.27V279.79C303.462 277.71 305.012 275.25 306.112 272.41C307.212 269.57 307.762 266.62 307.762 263.56C307.762 260.48 307.192 257.49 306.052 254.59C304.912 251.67 303.292 249.17 301.192 247.09V246.61H306.232C308.292 248.49 309.882 250.93 311.002 253.93C312.122 256.91 312.682 260.12 312.682 263.56C312.682 266.96 312.142 270.13 311.062 273.07C309.982 276.01 308.472 278.41 306.532 280.27H301.462ZM340.806 252.94V257.05H332.226V261.49H338.646V265.48H332.226V274H327.096V252.94H340.806ZM350.433 251.8V274H345.303V251.8H350.433ZM363.57 274.24C361.93 274.24 360.45 273.89 359.13 273.19C357.83 272.49 356.8 271.49 356.04 270.19C355.3 268.89 354.93 267.37 354.93 265.63C354.93 263.91 355.31 262.4 356.07 261.1C356.83 259.78 357.87 258.77 359.19 258.07C360.51 257.37 361.99 257.02 363.63 257.02C365.27 257.02 366.75 257.37 368.07 258.07C369.39 258.77 370.43 259.78 371.19 261.1C371.95 262.4 372.33 263.91 372.33 265.63C372.33 267.35 371.94 268.87 371.16 270.19C370.4 271.49 369.35 272.49 368.01 273.19C366.69 273.89 365.21 274.24 363.57 274.24ZM363.57 269.8C364.55 269.8 365.38 269.44 366.06 268.72C366.76 268 367.11 266.97 367.11 265.63C367.11 264.29 366.77 263.26 366.09 262.54C365.43 261.82 364.61 261.46 363.63 261.46C362.63 261.46 361.8 261.82 361.14 262.54C360.48 263.24 360.15 264.27 360.15 265.63C360.15 266.97 360.47 268 361.11 268.72C361.77 269.44 362.59 269.8 363.57 269.8ZM381.982 260.05C382.582 259.13 383.332 258.41 384.232 257.89C385.132 257.35 386.132 257.08 387.232 257.08V262.51H385.822C384.542 262.51 383.582 262.79 382.942 263.35C382.302 263.89 381.982 264.85 381.982 266.23V274H376.852V257.26H381.982V260.05ZM390.464 265.6C390.464 263.88 390.784 262.37 391.424 261.07C392.084 259.77 392.974 258.77 394.094 258.07C395.214 257.37 396.464 257.02 397.844 257.02C399.024 257.02 400.054 257.26 400.934 257.74C401.834 258.22 402.524 258.85 403.004 259.63V257.26H408.134V274H403.004V271.63C402.504 272.41 401.804 273.04 400.904 273.52C400.024 274 398.994 274.24 397.814 274.24C396.454 274.24 395.214 273.89 394.094 273.19C392.974 272.47 392.084 271.46 391.424 270.16C390.784 268.84 390.464 267.32 390.464 265.6ZM403.004 265.63C403.004 264.35 402.644 263.34 401.924 262.6C401.224 261.86 400.364 261.49 399.344 261.49C398.324 261.49 397.454 261.86 396.734 262.6C396.034 263.32 395.684 264.32 395.684 265.6C395.684 266.88 396.034 267.9 396.734 268.66C397.454 269.4 398.324 269.77 399.344 269.77C400.364 269.77 401.224 269.4 401.924 268.66C402.644 267.92 403.004 266.91 403.004 265.63Z" fill="#28B446"/>
<g clip-path="url(#clip0_2082_342)">
<path d="M252.792 28.3333C266.875 18.6666 281.083 12.7499 281.667 12.4999C282.542 12.1249 283.583 12.1666 284.417 12.6666C285.25 13.1666 285.833 13.9999 285.958 14.9583C286.208 16.6666 291.292 57.0416 278.458 79.2083C269.25 95.125 259.458 100.208 250.667 100.208C245.375 100.208 240.5 98.375 236.333 96C225.208 89.5833 215.083 76.5833 229.792 51.0833C231.375 48.3749 233.333 45.6666 235.667 43.0833C239.917 38.2499 245.667 33.2916 252.792 28.3333V28.3333Z" fill="#28B446"/>
<path d="M252.875 20.7916C251.667 21.5832 250.458 22.3749 249.25 23.2082C245.042 26.0832 241.292 28.9999 238 31.9582L237.625 31.6249C234.375 28.7499 230.667 25.8749 226.583 23.0832C225.375 22.2499 224.208 21.4582 223 20.6666C229.125 9.70825 235.083 1.83325 235.417 1.41659C236 0.666585 236.917 0.208252 237.875 0.208252C238.875 0.208252 239.792 0.666585 240.375 1.41659C240.667 1.83325 246.708 9.74992 252.875 20.7916Z" fill="#28B446"/>
<path d="M194.417 12.3333C195 12.5833 209.083 18.5417 223.042 28.2083C226.875 30.8333 230.375 33.5417 233.458 36.2917C232.583 37.1667 231.75 38.0417 231 38.9167C228.375 41.8333 226.167 44.875 224.375 47.9583C207.333 77.5 220.958 93.0417 230.333 99.5833C228.667 99.9583 226.917 100.167 225.167 100.167C216.375 100.167 206.5 95.0833 197.333 79.0417C184.625 56.8333 189.875 16.5 190.125 14.7917C190.25 13.8333 190.833 13 191.667 12.5C192.5 12.0417 193.542 11.9583 194.417 12.3333V12.3333Z" fill="#28B446"/>
</g>
<defs>
<clipPath id="clip0_2082_342">
<rect width="100" height="100" fill="white" transform="translate(188)"/>
</clipPath>
</defs>
</svg>
