<svg width="1920" height="1080" viewBox="0 0 1920 1080" fill="none" xmlns="http://www.w3.org/2000/svg">
<g clip-path="url(#clip0_2081_309)">
<rect width="1920" height="1080" fill="white"/>
<path d="M1919.52 0L1919.52 1076.49C1885.63 1126.68 1748.01 1196.96 1468.55 1076.49C1189.1 956.027 1652.76 308.637 1919.52 0Z" fill="url(#paint0_linear_2081_309)"/>
<path d="M2 1080.01V3.51468C35.8818 -46.6789 173.509 -116.95 452.962 3.51468C732.415 123.979 268.759 771.369 2 1080.01Z" fill="url(#paint1_linear_2081_309)"/>
<path d="M735.477 523.688H746.434L774.383 593.238L802.273 523.688H813.289L778.602 609H770.047L735.477 523.688ZM731.902 523.688H741.57L743.152 575.719V609H731.902V523.688ZM807.137 523.688H816.805V609H805.555V575.719L807.137 523.688ZM839.356 578.004V576.656C839.356 572.086 840.02 567.848 841.348 563.941C842.677 559.996 844.591 556.578 847.091 553.688C849.591 550.758 852.618 548.492 856.173 546.891C859.727 545.25 863.712 544.43 868.126 544.43C872.579 544.43 876.583 545.25 880.137 546.891C883.731 548.492 886.778 550.758 889.278 553.688C891.817 556.578 893.751 559.996 895.079 563.941C896.407 567.848 897.071 572.086 897.071 576.656V578.004C897.071 582.574 896.407 586.812 895.079 590.719C893.751 594.625 891.817 598.043 889.278 600.973C886.778 603.863 883.751 606.129 880.196 607.77C876.68 609.371 872.696 610.172 868.243 610.172C863.79 610.172 859.786 609.371 856.231 607.77C852.677 606.129 849.63 603.863 847.091 600.973C844.591 598.043 842.677 594.625 841.348 590.719C840.02 586.812 839.356 582.574 839.356 578.004ZM850.196 576.656V578.004C850.196 581.168 850.567 584.156 851.309 586.969C852.052 589.742 853.165 592.203 854.649 594.352C856.173 596.5 858.067 598.199 860.333 599.449C862.598 600.66 865.235 601.266 868.243 601.266C871.212 601.266 873.809 600.66 876.036 599.449C878.302 598.199 880.177 596.5 881.661 594.352C883.145 592.203 884.259 589.742 885.001 586.969C885.782 584.156 886.173 581.168 886.173 578.004V576.656C886.173 573.531 885.782 570.582 885.001 567.809C884.259 564.996 883.126 562.516 881.602 560.367C880.118 558.18 878.243 556.461 875.977 555.211C873.751 553.961 871.134 553.336 868.126 553.336C865.157 553.336 862.54 553.961 860.274 555.211C858.048 556.461 856.173 558.18 854.649 560.367C853.165 562.516 852.052 564.996 851.309 567.809C850.567 570.582 850.196 573.531 850.196 576.656ZM928.705 559.137V609H917.865V545.602H928.119L928.705 559.137ZM926.127 574.898L921.615 574.723C921.654 570.387 922.298 566.383 923.548 562.711C924.798 559 926.556 555.777 928.822 553.043C931.087 550.309 933.783 548.199 936.908 546.715C940.072 545.191 943.568 544.43 947.396 544.43C950.521 544.43 953.334 544.859 955.834 545.719C958.334 546.539 960.462 547.867 962.22 549.703C964.017 551.539 965.384 553.922 966.322 556.852C967.259 559.742 967.728 563.277 967.728 567.457V609H956.83V567.34C956.83 564.02 956.341 561.363 955.365 559.371C954.388 557.34 952.962 555.875 951.087 554.977C949.212 554.039 946.908 553.57 944.173 553.57C941.478 553.57 939.017 554.137 936.791 555.27C934.603 556.402 932.709 557.965 931.107 559.957C929.545 561.949 928.314 564.234 927.416 566.812C926.556 569.352 926.127 572.047 926.127 574.898ZM1003.17 545.602V609H992.272V545.602H1003.17ZM991.452 528.785C991.452 527.027 991.979 525.543 993.034 524.332C994.127 523.121 995.729 522.516 997.838 522.516C999.909 522.516 1001.49 523.121 1002.58 524.332C1003.72 525.543 1004.28 527.027 1004.28 528.785C1004.28 530.465 1003.72 531.91 1002.58 533.121C1001.49 534.293 999.909 534.879 997.838 534.879C995.729 534.879 994.127 534.293 993.034 533.121C991.979 531.91 991.452 530.465 991.452 528.785ZM1040.72 523.688V609H1029.41V523.688H1040.72ZM1076.46 562.066V571.324H1038.26V562.066H1076.46ZM1082.26 523.688V532.945H1038.26V523.688H1082.26ZM1113.08 519V609H1102.18V519H1113.08ZM1134.81 578.004V576.656C1134.81 572.086 1135.47 567.848 1136.8 563.941C1138.13 559.996 1140.04 556.578 1142.54 553.688C1145.04 550.758 1148.07 548.492 1151.63 546.891C1155.18 545.25 1159.16 544.43 1163.58 544.43C1168.03 544.43 1172.04 545.25 1175.59 546.891C1179.18 548.492 1182.23 550.758 1184.73 553.688C1187.27 556.578 1189.2 559.996 1190.53 563.941C1191.86 567.848 1192.52 572.086 1192.52 576.656V578.004C1192.52 582.574 1191.86 586.812 1190.53 590.719C1189.2 594.625 1187.27 598.043 1184.73 600.973C1182.23 603.863 1179.2 606.129 1175.65 607.77C1172.13 609.371 1168.15 610.172 1163.7 610.172C1159.24 610.172 1155.24 609.371 1151.68 607.77C1148.13 606.129 1145.08 603.863 1142.54 600.973C1140.04 598.043 1138.13 594.625 1136.8 590.719C1135.47 586.812 1134.81 582.574 1134.81 578.004ZM1145.65 576.656V578.004C1145.65 581.168 1146.02 584.156 1146.76 586.969C1147.5 589.742 1148.62 592.203 1150.1 594.352C1151.63 596.5 1153.52 598.199 1155.79 599.449C1158.05 600.66 1160.69 601.266 1163.7 601.266C1166.66 601.266 1169.26 600.66 1171.49 599.449C1173.75 598.199 1175.63 596.5 1177.11 594.352C1178.6 592.203 1179.71 589.742 1180.45 586.969C1181.24 584.156 1181.63 581.168 1181.63 578.004V576.656C1181.63 573.531 1181.24 570.582 1180.45 567.809C1179.71 564.996 1178.58 562.516 1177.06 560.367C1175.57 558.18 1173.7 556.461 1171.43 555.211C1169.2 553.961 1166.59 553.336 1163.58 553.336C1160.61 553.336 1157.99 553.961 1155.73 555.211C1153.5 556.461 1151.63 558.18 1150.1 560.367C1148.62 562.516 1147.5 564.996 1146.76 567.809C1146.02 570.582 1145.65 573.531 1145.65 576.656Z" fill="#28B446"/>
<path d="M813.71 649.94V671H808.58V658.37L803.87 671H799.73L794.99 658.34V671H789.86V649.94H795.92L801.83 664.52L807.68 649.94H813.71ZM826.819 671.24C825.179 671.24 823.699 670.89 822.379 670.19C821.079 669.49 820.049 668.49 819.289 667.19C818.549 665.89 818.179 664.37 818.179 662.63C818.179 660.91 818.559 659.4 819.319 658.1C820.079 656.78 821.119 655.77 822.439 655.07C823.759 654.37 825.239 654.02 826.879 654.02C828.519 654.02 829.999 654.37 831.319 655.07C832.639 655.77 833.679 656.78 834.439 658.1C835.199 659.4 835.579 660.91 835.579 662.63C835.579 664.35 835.189 665.87 834.409 667.19C833.649 668.49 832.599 669.49 831.259 670.19C829.939 670.89 828.459 671.24 826.819 671.24ZM826.819 666.8C827.799 666.8 828.629 666.44 829.309 665.72C830.009 665 830.359 663.97 830.359 662.63C830.359 661.29 830.019 660.26 829.339 659.54C828.679 658.82 827.859 658.46 826.879 658.46C825.879 658.46 825.049 658.82 824.389 659.54C823.729 660.24 823.399 661.27 823.399 662.63C823.399 663.97 823.719 665 824.359 665.72C825.019 666.44 825.839 666.8 826.819 666.8ZM850.301 654.08C852.261 654.08 853.821 654.72 854.981 656C856.161 657.26 856.751 659 856.751 661.22V671H851.651V661.91C851.651 660.79 851.361 659.92 850.781 659.3C850.201 658.68 849.421 658.37 848.441 658.37C847.461 658.37 846.681 658.68 846.101 659.3C845.521 659.92 845.231 660.79 845.231 661.91V671H840.101V654.26H845.231V656.48C845.751 655.74 846.451 655.16 847.331 654.74C848.211 654.3 849.201 654.08 850.301 654.08ZM864.695 652.52C863.795 652.52 863.055 652.26 862.475 651.74C861.915 651.2 861.635 650.54 861.635 649.76C861.635 648.96 861.915 648.3 862.475 647.78C863.055 647.24 863.795 646.97 864.695 646.97C865.575 646.97 866.295 647.24 866.855 647.78C867.435 648.3 867.725 648.96 867.725 649.76C867.725 650.54 867.435 651.2 866.855 651.74C866.295 652.26 865.575 652.52 864.695 652.52ZM867.245 654.26V671H862.115V654.26H867.245ZM882.093 666.65V671H879.483C877.623 671 876.173 670.55 875.133 669.65C874.093 668.73 873.573 667.24 873.573 665.18V658.52H871.533V654.26H873.573V650.18H878.703V654.26H882.063V658.52H878.703V665.24C878.703 665.74 878.823 666.1 879.063 666.32C879.303 666.54 879.703 666.65 880.263 666.65H882.093ZM894.371 671.24C892.731 671.24 891.251 670.89 889.931 670.19C888.631 669.49 887.601 668.49 886.841 667.19C886.101 665.89 885.731 664.37 885.731 662.63C885.731 660.91 886.111 659.4 886.871 658.1C887.631 656.78 888.671 655.77 889.991 655.07C891.311 654.37 892.791 654.02 894.431 654.02C896.071 654.02 897.551 654.37 898.871 655.07C900.191 655.77 901.231 656.78 901.991 658.1C902.751 659.4 903.131 660.91 903.131 662.63C903.131 664.35 902.741 665.87 901.961 667.19C901.201 668.49 900.151 669.49 898.811 670.19C897.491 670.89 896.011 671.24 894.371 671.24ZM894.371 666.8C895.351 666.8 896.181 666.44 896.861 665.72C897.561 665 897.911 663.97 897.911 662.63C897.911 661.29 897.571 660.26 896.891 659.54C896.231 658.82 895.411 658.46 894.431 658.46C893.431 658.46 892.601 658.82 891.941 659.54C891.281 660.24 890.951 661.27 890.951 662.63C890.951 663.97 891.271 665 891.911 665.72C892.571 666.44 893.391 666.8 894.371 666.8ZM912.782 657.05C913.382 656.13 914.132 655.41 915.032 654.89C915.932 654.35 916.932 654.08 918.032 654.08V659.51H916.622C915.342 659.51 914.382 659.79 913.742 660.35C913.102 660.89 912.782 661.85 912.782 663.23V671H907.652V654.26H912.782V657.05ZM937.342 677.27C935.402 675.41 933.892 673.01 932.812 670.07C931.732 667.13 931.192 663.96 931.192 660.56C931.192 657.12 931.752 653.91 932.872 650.93C933.992 647.93 935.582 645.49 937.642 643.61H942.682V644.09C940.582 646.17 938.962 648.67 937.822 651.59C936.682 654.49 936.112 657.48 936.112 660.56C936.112 663.62 936.662 666.57 937.762 669.41C938.862 672.25 940.412 674.71 942.412 676.79V677.27H937.342ZM963.639 654.26L953.139 678.95H947.619L951.459 670.43L944.649 654.26H950.379L954.249 664.73L958.089 654.26H963.639ZM974.914 671.24C973.274 671.24 971.794 670.89 970.474 670.19C969.174 669.49 968.144 668.49 967.384 667.19C966.644 665.89 966.274 664.37 966.274 662.63C966.274 660.91 966.654 659.4 967.414 658.1C968.174 656.78 969.214 655.77 970.534 655.07C971.854 654.37 973.334 654.02 974.974 654.02C976.614 654.02 978.094 654.37 979.414 655.07C980.734 655.77 981.774 656.78 982.534 658.1C983.294 659.4 983.674 660.91 983.674 662.63C983.674 664.35 983.284 665.87 982.504 667.19C981.744 668.49 980.694 669.49 979.354 670.19C978.034 670.89 976.554 671.24 974.914 671.24ZM974.914 666.8C975.894 666.8 976.724 666.44 977.404 665.72C978.104 665 978.454 663.97 978.454 662.63C978.454 661.29 978.114 660.26 977.434 659.54C976.774 658.82 975.954 658.46 974.974 658.46C973.974 658.46 973.144 658.82 972.484 659.54C971.824 660.24 971.494 661.27 971.494 662.63C971.494 663.97 971.814 665 972.454 665.72C973.114 666.44 973.934 666.8 974.914 666.8ZM1004.73 654.26V671H999.595V668.72C999.075 669.46 998.365 670.06 997.465 670.52C996.585 670.96 995.605 671.18 994.525 671.18C993.245 671.18 992.115 670.9 991.135 670.34C990.155 669.76 989.395 668.93 988.855 667.85C988.315 666.77 988.045 665.5 988.045 664.04V654.26H993.145V663.35C993.145 664.47 993.435 665.34 994.015 665.96C994.595 666.58 995.375 666.89 996.355 666.89C997.355 666.89 998.145 666.58 998.725 665.96C999.305 665.34 999.595 664.47 999.595 663.35V654.26H1004.73ZM1015.34 657.05C1015.94 656.13 1016.69 655.41 1017.59 654.89C1018.49 654.35 1019.49 654.08 1020.59 654.08V659.51H1019.18C1017.9 659.51 1016.94 659.79 1016.3 660.35C1015.66 660.89 1015.34 661.85 1015.34 663.23V671H1010.21V654.26H1015.34V657.05ZM1023.46 677.27V676.79C1025.46 674.71 1027.01 672.25 1028.11 669.41C1029.21 666.57 1029.76 663.62 1029.76 660.56C1029.76 657.48 1029.19 654.49 1028.05 651.59C1026.91 648.67 1025.29 646.17 1023.19 644.09V643.61H1028.23C1030.29 645.49 1031.88 647.93 1033 650.93C1034.12 653.91 1034.68 657.12 1034.68 660.56C1034.68 663.96 1034.14 667.13 1033.06 670.07C1031.98 673.01 1030.47 675.41 1028.53 677.27H1023.46ZM1062.81 649.94V654.05H1054.23V658.49H1060.65V662.48H1054.23V671H1049.1V649.94H1062.81ZM1072.43 648.8V671H1067.3V648.8H1072.43ZM1085.57 671.24C1083.93 671.24 1082.45 670.89 1081.13 670.19C1079.83 669.49 1078.8 668.49 1078.04 667.19C1077.3 665.89 1076.93 664.37 1076.93 662.63C1076.93 660.91 1077.31 659.4 1078.07 658.1C1078.83 656.78 1079.87 655.77 1081.19 655.07C1082.51 654.37 1083.99 654.02 1085.63 654.02C1087.27 654.02 1088.75 654.37 1090.07 655.07C1091.39 655.77 1092.43 656.78 1093.19 658.1C1093.95 659.4 1094.33 660.91 1094.33 662.63C1094.33 664.35 1093.94 665.87 1093.16 667.19C1092.4 668.49 1091.35 669.49 1090.01 670.19C1088.69 670.89 1087.21 671.24 1085.57 671.24ZM1085.57 666.8C1086.55 666.8 1087.38 666.44 1088.06 665.72C1088.76 665 1089.11 663.97 1089.11 662.63C1089.11 661.29 1088.77 660.26 1088.09 659.54C1087.43 658.82 1086.61 658.46 1085.63 658.46C1084.63 658.46 1083.8 658.82 1083.14 659.54C1082.48 660.24 1082.15 661.27 1082.15 662.63C1082.15 663.97 1082.47 665 1083.11 665.72C1083.77 666.44 1084.59 666.8 1085.57 666.8ZM1103.98 657.05C1104.58 656.13 1105.33 655.41 1106.23 654.89C1107.13 654.35 1108.13 654.08 1109.23 654.08V659.51H1107.82C1106.54 659.51 1105.58 659.79 1104.94 660.35C1104.3 660.89 1103.98 661.85 1103.98 663.23V671H1098.85V654.26H1103.98V657.05ZM1112.46 662.6C1112.46 660.88 1112.78 659.37 1113.42 658.07C1114.08 656.77 1114.97 655.77 1116.09 655.07C1117.21 654.37 1118.46 654.02 1119.84 654.02C1121.02 654.02 1122.05 654.26 1122.93 654.74C1123.83 655.22 1124.52 655.85 1125 656.63V654.26H1130.13V671H1125V668.63C1124.5 669.41 1123.8 670.04 1122.9 670.52C1122.02 671 1120.99 671.24 1119.81 671.24C1118.45 671.24 1117.21 670.89 1116.09 670.19C1114.97 669.47 1114.08 668.46 1113.42 667.16C1112.78 665.84 1112.46 664.32 1112.46 662.6ZM1125 662.63C1125 661.35 1124.64 660.34 1123.92 659.6C1123.22 658.86 1122.36 658.49 1121.34 658.49C1120.32 658.49 1119.45 658.86 1118.73 659.6C1118.03 660.32 1117.68 661.32 1117.68 662.6C1117.68 663.88 1118.03 664.9 1118.73 665.66C1119.45 666.4 1120.32 666.77 1121.34 666.77C1122.36 666.77 1123.22 666.4 1123.92 665.66C1124.64 664.92 1125 663.91 1125 662.63Z" fill="#28B446"/>
<g clip-path="url(#clip1_2081_309)">
<path d="M974.792 425.333C988.875 415.667 1003.08 409.75 1003.67 409.5C1004.54 409.125 1005.58 409.167 1006.42 409.667C1007.25 410.167 1007.83 411 1007.96 411.958C1008.21 413.667 1013.29 454.042 1000.46 476.208C991.25 492.125 981.458 497.208 972.667 497.208C967.375 497.208 962.5 495.375 958.333 493C947.208 486.583 937.083 473.583 951.792 448.083C953.375 445.375 955.333 442.667 957.667 440.083C961.917 435.25 967.667 430.292 974.792 425.333V425.333Z" fill="#28B446"/>
<path d="M974.875 417.792C973.667 418.583 972.458 419.375 971.25 420.208C967.042 423.083 963.292 426 960 428.958L959.625 428.625C956.375 425.75 952.667 422.875 948.583 420.083C947.375 419.25 946.208 418.458 945 417.667C951.125 406.708 957.083 398.833 957.417 398.417C958 397.667 958.917 397.208 959.875 397.208C960.875 397.208 961.792 397.667 962.375 398.417C962.667 398.833 968.708 406.75 974.875 417.792Z" fill="#28B446"/>
<path d="M916.417 409.333C917 409.583 931.083 415.542 945.042 425.208C948.875 427.833 952.375 430.542 955.458 433.292C954.583 434.167 953.75 435.042 953 435.917C950.375 438.833 948.167 441.875 946.375 444.958C929.333 474.5 942.958 490.042 952.333 496.583C950.667 496.958 948.917 497.167 947.167 497.167C938.375 497.167 928.5 492.083 919.333 476.042C906.625 453.833 911.875 413.5 912.125 411.792C912.25 410.833 912.833 410 913.667 409.5C914.5 409.042 915.542 408.958 916.417 409.333V409.333Z" fill="#28B446"/>
</g>
</g>
<defs>
<linearGradient id="paint0_linear_2081_309" x1="1650.76" y1="1143.01" x2="1650.76" y2="0" gradientUnits="userSpaceOnUse">
<stop stop-color="#9AFFC2"/>
<stop offset="1" stop-color="#2BD800"/>
</linearGradient>
<linearGradient id="paint1_linear_2081_309" x1="270.758" y1="-63" x2="270.758" y2="1080.01" gradientUnits="userSpaceOnUse">
<stop stop-color="#9AFFC2"/>
<stop offset="1" stop-color="#28B446"/>
</linearGradient>
<clipPath id="clip0_2081_309">
<rect width="1920" height="1080" fill="white"/>
</clipPath>
<clipPath id="clip1_2081_309">
<rect width="100" height="100" fill="white" transform="translate(910 397)"/>
</clipPath>
</defs>
</svg>
