<svg width="1080" height="1920" viewBox="0 0 1080 1920" fill="none" xmlns="http://www.w3.org/2000/svg">
<g clip-path="url(#clip0_2081_257)">
<rect width="1080" height="1920" fill="white"/>
<path d="M0 1045.01V-31.4853C33.8818 -81.6789 171.509 -151.95 450.962 -31.4853C730.415 88.9792 266.759 736.369 0 1045.01Z" fill="url(#paint0_linear_2081_257)"/>
<path d="M1079.79 847.238L1079.79 1923.73C1045.91 1973.92 908.281 2044.19 628.828 1923.73C349.375 1803.26 813.03 1155.87 1079.79 847.238Z" fill="url(#paint1_linear_2081_257)"/>
<path d="M315.477 885.688H326.434L354.383 955.238L382.273 885.688H393.289L358.602 971H350.047L315.477 885.688ZM311.902 885.688H321.57L323.152 937.719V971H311.902V885.688ZM387.137 885.688H396.805V971H385.555V937.719L387.137 885.688ZM419.356 940.004V938.656C419.356 934.086 420.02 929.848 421.348 925.941C422.677 921.996 424.591 918.578 427.091 915.688C429.591 912.758 432.618 910.492 436.173 908.891C439.727 907.25 443.712 906.43 448.126 906.43C452.579 906.43 456.583 907.25 460.137 908.891C463.731 910.492 466.778 912.758 469.278 915.688C471.817 918.578 473.751 921.996 475.079 925.941C476.407 929.848 477.071 934.086 477.071 938.656V940.004C477.071 944.574 476.407 948.812 475.079 952.719C473.751 956.625 471.817 960.043 469.278 962.973C466.778 965.863 463.751 968.129 460.196 969.77C456.68 971.371 452.696 972.172 448.243 972.172C443.79 972.172 439.786 971.371 436.231 969.77C432.677 968.129 429.63 965.863 427.091 962.973C424.591 960.043 422.677 956.625 421.348 952.719C420.02 948.812 419.356 944.574 419.356 940.004ZM430.196 938.656V940.004C430.196 943.168 430.567 946.156 431.309 948.969C432.052 951.742 433.165 954.203 434.649 956.352C436.173 958.5 438.067 960.199 440.333 961.449C442.598 962.66 445.235 963.266 448.243 963.266C451.212 963.266 453.809 962.66 456.036 961.449C458.302 960.199 460.177 958.5 461.661 956.352C463.145 954.203 464.259 951.742 465.001 948.969C465.782 946.156 466.173 943.168 466.173 940.004V938.656C466.173 935.531 465.782 932.582 465.001 929.809C464.259 926.996 463.126 924.516 461.602 922.367C460.118 920.18 458.243 918.461 455.977 917.211C453.751 915.961 451.134 915.336 448.126 915.336C445.157 915.336 442.54 915.961 440.274 917.211C438.048 918.461 436.173 920.18 434.649 922.367C433.165 924.516 432.052 926.996 431.309 929.809C430.567 932.582 430.196 935.531 430.196 938.656ZM508.705 921.137V971H497.865V907.602H508.119L508.705 921.137ZM506.127 936.898L501.615 936.723C501.654 932.387 502.298 928.383 503.548 924.711C504.798 921 506.556 917.777 508.822 915.043C511.087 912.309 513.783 910.199 516.908 908.715C520.072 907.191 523.568 906.43 527.396 906.43C530.521 906.43 533.334 906.859 535.834 907.719C538.334 908.539 540.462 909.867 542.22 911.703C544.017 913.539 545.384 915.922 546.322 918.852C547.259 921.742 547.728 925.277 547.728 929.457V971H536.83V929.34C536.83 926.02 536.341 923.363 535.365 921.371C534.388 919.34 532.962 917.875 531.087 916.977C529.212 916.039 526.908 915.57 524.173 915.57C521.478 915.57 519.017 916.137 516.791 917.27C514.603 918.402 512.709 919.965 511.107 921.957C509.545 923.949 508.314 926.234 507.416 928.812C506.556 931.352 506.127 934.047 506.127 936.898ZM583.17 907.602V971H572.272V907.602H583.17ZM571.452 890.785C571.452 889.027 571.979 887.543 573.034 886.332C574.127 885.121 575.729 884.516 577.838 884.516C579.909 884.516 581.491 885.121 582.584 886.332C583.717 887.543 584.284 889.027 584.284 890.785C584.284 892.465 583.717 893.91 582.584 895.121C581.491 896.293 579.909 896.879 577.838 896.879C575.729 896.879 574.127 896.293 573.034 895.121C571.979 893.91 571.452 892.465 571.452 890.785ZM620.722 885.688V971H609.413V885.688H620.722ZM656.464 924.066V933.324H618.261V924.066H656.464ZM662.265 885.688V894.945H618.261V885.688H662.265ZM693.078 881V971H682.18V881H693.078ZM714.809 940.004V938.656C714.809 934.086 715.473 929.848 716.802 925.941C718.13 921.996 720.044 918.578 722.544 915.688C725.044 912.758 728.071 910.492 731.626 908.891C735.18 907.25 739.165 906.43 743.579 906.43C748.032 906.43 752.036 907.25 755.591 908.891C759.184 910.492 762.231 912.758 764.731 915.688C767.27 918.578 769.204 921.996 770.532 925.941C771.86 929.848 772.524 934.086 772.524 938.656V940.004C772.524 944.574 771.86 948.812 770.532 952.719C769.204 956.625 767.27 960.043 764.731 962.973C762.231 965.863 759.204 968.129 755.649 969.77C752.134 971.371 748.149 972.172 743.696 972.172C739.243 972.172 735.239 971.371 731.684 969.77C728.13 968.129 725.083 965.863 722.544 962.973C720.044 960.043 718.13 956.625 716.802 952.719C715.473 948.812 714.809 944.574 714.809 940.004ZM725.649 938.656V940.004C725.649 943.168 726.02 946.156 726.763 948.969C727.505 951.742 728.618 954.203 730.102 956.352C731.626 958.5 733.52 960.199 735.786 961.449C738.052 962.66 740.688 963.266 743.696 963.266C746.665 963.266 749.263 962.66 751.489 961.449C753.755 960.199 755.63 958.5 757.114 956.352C758.598 954.203 759.712 951.742 760.454 948.969C761.235 946.156 761.626 943.168 761.626 940.004V938.656C761.626 935.531 761.235 932.582 760.454 929.809C759.712 926.996 758.579 924.516 757.055 922.367C755.571 920.18 753.696 918.461 751.43 917.211C749.204 915.961 746.587 915.336 743.579 915.336C740.61 915.336 737.993 915.961 735.727 917.211C733.501 918.461 731.626 920.18 730.102 922.367C728.618 924.516 727.505 926.996 726.763 929.809C726.02 932.582 725.649 935.531 725.649 938.656Z" fill="#28B446"/>
<path d="M393.71 1011.94V1033H388.58V1020.37L383.87 1033H379.73L374.99 1020.34V1033H369.86V1011.94H375.92L381.83 1026.52L387.68 1011.94H393.71ZM406.819 1033.24C405.179 1033.24 403.699 1032.89 402.379 1032.19C401.079 1031.49 400.049 1030.49 399.289 1029.19C398.549 1027.89 398.179 1026.37 398.179 1024.63C398.179 1022.91 398.559 1021.4 399.319 1020.1C400.079 1018.78 401.119 1017.77 402.439 1017.07C403.759 1016.37 405.239 1016.02 406.879 1016.02C408.519 1016.02 409.999 1016.37 411.319 1017.07C412.639 1017.77 413.679 1018.78 414.439 1020.1C415.199 1021.4 415.579 1022.91 415.579 1024.63C415.579 1026.35 415.189 1027.87 414.409 1029.19C413.649 1030.49 412.599 1031.49 411.259 1032.19C409.939 1032.89 408.459 1033.24 406.819 1033.24ZM406.819 1028.8C407.799 1028.8 408.629 1028.44 409.309 1027.72C410.009 1027 410.359 1025.97 410.359 1024.63C410.359 1023.29 410.019 1022.26 409.339 1021.54C408.679 1020.82 407.859 1020.46 406.879 1020.46C405.879 1020.46 405.049 1020.82 404.389 1021.54C403.729 1022.24 403.399 1023.27 403.399 1024.63C403.399 1025.97 403.719 1027 404.359 1027.72C405.019 1028.44 405.839 1028.8 406.819 1028.8ZM430.301 1016.08C432.261 1016.08 433.821 1016.72 434.981 1018C436.161 1019.26 436.751 1021 436.751 1023.22V1033H431.651V1023.91C431.651 1022.79 431.361 1021.92 430.781 1021.3C430.201 1020.68 429.421 1020.37 428.441 1020.37C427.461 1020.37 426.681 1020.68 426.101 1021.3C425.521 1021.92 425.231 1022.79 425.231 1023.91V1033H420.101V1016.26H425.231V1018.48C425.751 1017.74 426.451 1017.16 427.331 1016.74C428.211 1016.3 429.201 1016.08 430.301 1016.08ZM444.695 1014.52C443.795 1014.52 443.055 1014.26 442.475 1013.74C441.915 1013.2 441.635 1012.54 441.635 1011.76C441.635 1010.96 441.915 1010.3 442.475 1009.78C443.055 1009.24 443.795 1008.97 444.695 1008.97C445.575 1008.97 446.295 1009.24 446.855 1009.78C447.435 1010.3 447.725 1010.96 447.725 1011.76C447.725 1012.54 447.435 1013.2 446.855 1013.74C446.295 1014.26 445.575 1014.52 444.695 1014.52ZM447.245 1016.26V1033H442.115V1016.26H447.245ZM462.093 1028.65V1033H459.483C457.623 1033 456.173 1032.55 455.133 1031.65C454.093 1030.73 453.573 1029.24 453.573 1027.18V1020.52H451.533V1016.26H453.573V1012.18H458.703V1016.26H462.063V1020.52H458.703V1027.24C458.703 1027.74 458.823 1028.1 459.063 1028.32C459.303 1028.54 459.703 1028.65 460.263 1028.65H462.093ZM474.371 1033.24C472.731 1033.24 471.251 1032.89 469.931 1032.19C468.631 1031.49 467.601 1030.49 466.841 1029.19C466.101 1027.89 465.731 1026.37 465.731 1024.63C465.731 1022.91 466.111 1021.4 466.871 1020.1C467.631 1018.78 468.671 1017.77 469.991 1017.07C471.311 1016.37 472.791 1016.02 474.431 1016.02C476.071 1016.02 477.551 1016.37 478.871 1017.07C480.191 1017.77 481.231 1018.78 481.991 1020.1C482.751 1021.4 483.131 1022.91 483.131 1024.63C483.131 1026.35 482.741 1027.87 481.961 1029.19C481.201 1030.49 480.151 1031.49 478.811 1032.19C477.491 1032.89 476.011 1033.24 474.371 1033.24ZM474.371 1028.8C475.351 1028.8 476.181 1028.44 476.861 1027.72C477.561 1027 477.911 1025.97 477.911 1024.63C477.911 1023.29 477.571 1022.26 476.891 1021.54C476.231 1020.82 475.411 1020.46 474.431 1020.46C473.431 1020.46 472.601 1020.82 471.941 1021.54C471.281 1022.24 470.951 1023.27 470.951 1024.63C470.951 1025.97 471.271 1027 471.911 1027.72C472.571 1028.44 473.391 1028.8 474.371 1028.8ZM492.782 1019.05C493.382 1018.13 494.132 1017.41 495.032 1016.89C495.932 1016.35 496.932 1016.08 498.032 1016.08V1021.51H496.622C495.342 1021.51 494.382 1021.79 493.742 1022.35C493.102 1022.89 492.782 1023.85 492.782 1025.23V1033H487.652V1016.26H492.782V1019.05ZM517.342 1039.27C515.402 1037.41 513.892 1035.01 512.812 1032.07C511.732 1029.13 511.192 1025.96 511.192 1022.56C511.192 1019.12 511.752 1015.91 512.872 1012.93C513.992 1009.93 515.582 1007.49 517.642 1005.61H522.682V1006.09C520.582 1008.17 518.962 1010.67 517.822 1013.59C516.682 1016.49 516.112 1019.48 516.112 1022.56C516.112 1025.62 516.662 1028.57 517.762 1031.41C518.862 1034.25 520.412 1036.71 522.412 1038.79V1039.27H517.342ZM543.639 1016.26L533.139 1040.95H527.619L531.459 1032.43L524.649 1016.26H530.379L534.249 1026.73L538.089 1016.26H543.639ZM554.914 1033.24C553.274 1033.24 551.794 1032.89 550.474 1032.19C549.174 1031.49 548.144 1030.49 547.384 1029.19C546.644 1027.89 546.274 1026.37 546.274 1024.63C546.274 1022.91 546.654 1021.4 547.414 1020.1C548.174 1018.78 549.214 1017.77 550.534 1017.07C551.854 1016.37 553.334 1016.02 554.974 1016.02C556.614 1016.02 558.094 1016.37 559.414 1017.07C560.734 1017.77 561.774 1018.78 562.534 1020.1C563.294 1021.4 563.674 1022.91 563.674 1024.63C563.674 1026.35 563.284 1027.87 562.504 1029.19C561.744 1030.49 560.694 1031.49 559.354 1032.19C558.034 1032.89 556.554 1033.24 554.914 1033.24ZM554.914 1028.8C555.894 1028.8 556.724 1028.44 557.404 1027.72C558.104 1027 558.454 1025.97 558.454 1024.63C558.454 1023.29 558.114 1022.26 557.434 1021.54C556.774 1020.82 555.954 1020.46 554.974 1020.46C553.974 1020.46 553.144 1020.82 552.484 1021.54C551.824 1022.24 551.494 1023.27 551.494 1024.63C551.494 1025.97 551.814 1027 552.454 1027.72C553.114 1028.44 553.934 1028.8 554.914 1028.8ZM584.725 1016.26V1033H579.595V1030.72C579.075 1031.46 578.365 1032.06 577.465 1032.52C576.585 1032.96 575.605 1033.18 574.525 1033.18C573.245 1033.18 572.115 1032.9 571.135 1032.34C570.155 1031.76 569.395 1030.93 568.855 1029.85C568.315 1028.77 568.045 1027.5 568.045 1026.04V1016.26H573.145V1025.35C573.145 1026.47 573.435 1027.34 574.015 1027.96C574.595 1028.58 575.375 1028.89 576.355 1028.89C577.355 1028.89 578.145 1028.58 578.725 1027.96C579.305 1027.34 579.595 1026.47 579.595 1025.35V1016.26H584.725ZM595.34 1019.05C595.94 1018.13 596.69 1017.41 597.59 1016.89C598.49 1016.35 599.49 1016.08 600.59 1016.08V1021.51H599.18C597.9 1021.51 596.94 1021.79 596.3 1022.35C595.66 1022.89 595.34 1023.85 595.34 1025.23V1033H590.21V1016.26H595.34V1019.05ZM603.462 1039.27V1038.79C605.462 1036.71 607.012 1034.25 608.112 1031.41C609.212 1028.57 609.762 1025.62 609.762 1022.56C609.762 1019.48 609.192 1016.49 608.052 1013.59C606.912 1010.67 605.292 1008.17 603.192 1006.09V1005.61H608.232C610.292 1007.49 611.882 1009.93 613.002 1012.93C614.122 1015.91 614.682 1019.12 614.682 1022.56C614.682 1025.96 614.142 1029.13 613.062 1032.07C611.982 1035.01 610.472 1037.41 608.532 1039.27H603.462ZM642.806 1011.94V1016.05H634.226V1020.49H640.646V1024.48H634.226V1033H629.096V1011.94H642.806ZM652.433 1010.8V1033H647.303V1010.8H652.433ZM665.57 1033.24C663.93 1033.24 662.45 1032.89 661.13 1032.19C659.83 1031.49 658.8 1030.49 658.04 1029.19C657.3 1027.89 656.93 1026.37 656.93 1024.63C656.93 1022.91 657.31 1021.4 658.07 1020.1C658.83 1018.78 659.87 1017.77 661.19 1017.07C662.51 1016.37 663.99 1016.02 665.63 1016.02C667.27 1016.02 668.75 1016.37 670.07 1017.07C671.39 1017.77 672.43 1018.78 673.19 1020.1C673.95 1021.4 674.33 1022.91 674.33 1024.63C674.33 1026.35 673.94 1027.87 673.16 1029.19C672.4 1030.49 671.35 1031.49 670.01 1032.19C668.69 1032.89 667.21 1033.24 665.57 1033.24ZM665.57 1028.8C666.55 1028.8 667.38 1028.44 668.06 1027.72C668.76 1027 669.11 1025.97 669.11 1024.63C669.11 1023.29 668.77 1022.26 668.09 1021.54C667.43 1020.82 666.61 1020.46 665.63 1020.46C664.63 1020.46 663.8 1020.82 663.14 1021.54C662.48 1022.24 662.15 1023.27 662.15 1024.63C662.15 1025.97 662.47 1027 663.11 1027.72C663.77 1028.44 664.59 1028.8 665.57 1028.8ZM683.982 1019.05C684.582 1018.13 685.332 1017.41 686.232 1016.89C687.132 1016.35 688.132 1016.08 689.232 1016.08V1021.51H687.822C686.542 1021.51 685.582 1021.79 684.942 1022.35C684.302 1022.89 683.982 1023.85 683.982 1025.23V1033H678.852V1016.26H683.982V1019.05ZM692.464 1024.6C692.464 1022.88 692.784 1021.37 693.424 1020.07C694.084 1018.77 694.974 1017.77 696.094 1017.07C697.214 1016.37 698.464 1016.02 699.844 1016.02C701.024 1016.02 702.054 1016.26 702.934 1016.74C703.834 1017.22 704.524 1017.85 705.004 1018.63V1016.26H710.134V1033H705.004V1030.63C704.504 1031.41 703.804 1032.04 702.904 1032.52C702.024 1033 700.994 1033.24 699.814 1033.24C698.454 1033.24 697.214 1032.89 696.094 1032.19C694.974 1031.47 694.084 1030.46 693.424 1029.16C692.784 1027.84 692.464 1026.32 692.464 1024.6ZM705.004 1024.63C705.004 1023.35 704.644 1022.34 703.924 1021.6C703.224 1020.86 702.364 1020.49 701.344 1020.49C700.324 1020.49 699.454 1020.86 698.734 1021.6C698.034 1022.32 697.684 1023.32 697.684 1024.6C697.684 1025.88 698.034 1026.9 698.734 1027.66C699.454 1028.4 700.324 1028.77 701.344 1028.77C702.364 1028.77 703.224 1028.4 703.924 1027.66C704.644 1026.92 705.004 1025.91 705.004 1024.63Z" fill="#28B446"/>
<g clip-path="url(#clip1_2081_257)">
<path d="M554.792 787.333C568.875 777.667 583.083 771.75 583.667 771.5C584.542 771.125 585.583 771.167 586.417 771.667C587.25 772.167 587.833 773 587.958 773.958C588.208 775.667 593.292 816.042 580.458 838.208C571.25 854.125 561.458 859.208 552.667 859.208C547.375 859.208 542.5 857.375 538.333 855C527.208 848.583 517.083 835.583 531.792 810.083C533.375 807.375 535.333 804.667 537.667 802.083C541.917 797.25 547.667 792.292 554.792 787.333V787.333Z" fill="#28B446"/>
<path d="M554.875 779.792C553.667 780.583 552.458 781.375 551.25 782.208C547.042 785.083 543.292 788 540 790.958L539.625 790.625C536.375 787.75 532.667 784.875 528.583 782.083C527.375 781.25 526.208 780.458 525 779.667C531.125 768.708 537.083 760.833 537.417 760.417C538 759.667 538.917 759.208 539.875 759.208C540.875 759.208 541.792 759.667 542.375 760.417C542.667 760.833 548.708 768.75 554.875 779.792Z" fill="#28B446"/>
<path d="M496.417 771.333C497 771.583 511.083 777.542 525.042 787.208C528.875 789.833 532.375 792.542 535.458 795.292C534.583 796.167 533.75 797.042 533 797.917C530.375 800.833 528.167 803.875 526.375 806.958C509.333 836.5 522.958 852.042 532.333 858.583C530.667 858.958 528.917 859.167 527.167 859.167C518.375 859.167 508.5 854.083 499.333 838.042C486.625 815.833 491.875 775.5 492.125 773.792C492.25 772.833 492.833 772 493.667 771.5C494.5 771.042 495.542 770.958 496.417 771.333V771.333Z" fill="#28B446"/>
</g>
</g>
<defs>
<linearGradient id="paint0_linear_2081_257" x1="268.758" y1="-98" x2="268.758" y2="1045.01" gradientUnits="userSpaceOnUse">
<stop stop-color="#9AFFC2"/>
<stop offset="1" stop-color="#28B446"/>
</linearGradient>
<linearGradient id="paint1_linear_2081_257" x1="811.031" y1="1990.24" x2="811.031" y2="847.238" gradientUnits="userSpaceOnUse">
<stop stop-color="#9AFFC2"/>
<stop offset="1" stop-color="#2BD800"/>
</linearGradient>
<clipPath id="clip0_2081_257">
<rect width="1080" height="1920" fill="white"/>
</clipPath>
<clipPath id="clip1_2081_257">
<rect width="100" height="100" fill="white" transform="translate(490 759)"/>
</clipPath>
</defs>
</svg>
